HIERARCHY
ROOT Hips
{
 OFFSET 0.000000 0.000000 0.000000
 CHANNELS 6 Xposition Yposition Zposition Yrotation Xrotation Zrotation
 JOINT Chest
 {
  OFFSET 0.000000 9.585900 0.002600
  CHANNELS 3 Yrotation Xrotation Zrotation
  JOINT Chest2
  {
   OFFSET 0.000000 9.601200 -0.005300
   CHANNELS 3 Yrotation Xrotation Zrotation
   JOINT Chest3
   {
    OFFSET 0.000000 9.561800 0.000000
    CHANNELS 3 Yrotation Xrotation Zrotation
    JOINT Chest4
    {
     OFFSET 0.000000 9.552100 0.000000
     CHANNELS 3 Yrotation Xrotation Zrotation
     JOINT Neck
     {
      OFFSET 0.000000 14.453000 0.000000
      CHANNELS 3 Yrotation Xrotation Zrotation
      JOINT Head
      {
       OFFSET 0.000000 8.936500 -0.011300
       CHANNELS 3 Yrotation Xrotation Zrotation
       End Site
       {
        OFFSET 0.000000 17.073600 -0.006000
       }
      }
     }
     JOINT RightCollar
     {
      OFFSET -2.921100 9.558500 0.000000
      CHANNELS 3 Yrotation Xrotation Zrotation
      JOINT RightShoulder
      {
       OFFSET -13.519700 0.000000 0.000000
       CHANNELS 3 Yrotation Xrotation Zrotation
       JOINT RightElbow
       {
        OFFSET 0.000000 -29.696600 0.000000
        CHANNELS 3 Yrotation Xrotation Zrotation
        JOINT RightWrist
        {
         OFFSET 0.000000 -24.004700 0.000000
         CHANNELS 3 Yrotation Xrotation Zrotation
         End Site
         {
          OFFSET 0.000000 -17.728500 0.000000
         }
        }
       }
      }
     }
     JOINT LeftCollar
     {
      OFFSET 2.921100 9.558500 0.000000
      CHANNELS 3 Yrotation Xrotation Zrotation
      JOINT LeftShoulder
      {
       OFFSET 13.519700 0.000000 0.000000
       CHANNELS 3 Yrotation Xrotation Zrotation
       JOINT LeftElbow
       {
        OFFSET 0.000000 -29.696600 0.000000
        CHANNELS 3 Yrotation Xrotation Zrotation
        JOINT LeftWrist
        {
         OFFSET 0.000000 -24.004700 0.000000
         CHANNELS 3 Yrotation Xrotation Zrotation
         End Site
         {
          OFFSET 0.000000 -17.728500 0.000000
         }
        }
       }
      }
     }
    }
   }
  }
 }
 JOINT RightHip
 {
  OFFSET -7.771700 -0.012900 -0.001300
  CHANNELS 3 Yrotation Xrotation Zrotation
  JOINT RightKnee
  {
   OFFSET 0.000000 -40.869800 0.001200
   CHANNELS 3 Yrotation Xrotation Zrotation
   JOINT RightAnkle
   {
    OFFSET 0.000000 -39.717900 0.002100
    CHANNELS 3 Yrotation Xrotation Zrotation
    JOINT RightToe
    {
     OFFSET 0.000000 -4.965400 11.033500
     CHANNELS 3 Yrotation Xrotation Zrotation
     End Site
     {
      OFFSET 0.000000 -1.423100 5.872300
     }
    }
   }
  }
 }
 JOINT LeftHip
 {
  OFFSET 7.771700 -0.012900 -0.001300
  CHANNELS 3 Yrotation Xrotation Zrotation
  JOINT LeftKnee
  {
   OFFSET 0.000000 -40.869800 0.001200
   CHANNELS 3 Yrotation Xrotation Zrotation
   JOINT LeftAnkle
   {
    OFFSET 0.000000 -39.717900 0.002100
    CHANNELS 3 Yrotation Xrotation Zrotation
    JOINT LeftToe
    {
     OFFSET 0.000000 -4.965400 11.033500
     CHANNELS 3 Yrotation Xrotation Zrotation
     End Site
     {
      OFFSET 0.000000 -1.423100 5.872300
     }
    }
   }
  }
 }
}
MOTION
Frames: 12
Frame Time: 0.008333
-20.953063 50.166475 27.030573 162.060895 -11.481273 0.208466 5.767798 7.282799 0.161603 0.319417 0.403032 -0.048604 0.554093 0.699743 -0.082887 5.337773 6.789785 -0.518800 11.059541 18.166857 -1.806904 20.879111 -1.024119 -6.803107 0.235435 3.891330 -2.259811 -11.365811 -11.393560 1.179410 -61.914395 -61.147029 67.461664 -8.419044 -7.574568 -22.205422 -5.714774 0.804123 3.302928 22.005707 -8.690013 -0.189042 66.777471 -44.237417 -120.481395 8.508107 -4.576620 -8.811040 -6.068638 -69.271847 1.104213 -144.406254 82.515899 -141.929003 -2.609775 -16.571731 -1.898818 -0.314195 0.562249 -0.278885 -6.467528 -72.447165 26.594983 125.581964 80.460265 122.069353 -16.079909 -23.646672 1.384277 -0.121365 -0.873333 -0.205231
-20.948525 50.168609 27.038384 162.145650 -11.610533 0.161905 5.851840 7.282841 0.152106 0.322862 0.401791 -0.049641 0.559969 0.697538 -0.084653 5.387407 6.760925 -0.533447 10.910518 18.164832 -1.798944 20.604144 -1.052171 -6.744889 0.306853 4.312411 -2.248376 -10.059970 -11.807257 2.139927 -61.097501 -57.213546 64.844967 -9.196542 -7.914875 -23.868207 -6.214049 0.786961 2.980194 20.292298 -9.061740 -1.029194 65.255784 -43.557587 -119.305545 9.528516 -5.431742 -7.372656 -6.190932 -69.136571 1.086480 -144.733471 82.542698 -142.212895 -2.548224 -16.526067 -1.926306 -0.371550 0.542679 -0.270883 -6.606172 -72.323548 26.622104 125.469390 80.488579 122.019561 -16.204826 -23.635529 1.394353 -0.016587 -0.862962 -0.179146
-20.944139 50.173407 27.055148 162.227559 -11.708591 0.102239 5.944845 7.251986 0.153621 0.327642 0.401136 -0.050696 0.568218 0.696213 -0.086521 5.452155 6.732375 -0.547140 10.739844 18.157764 -1.772812 20.284281 -1.095790 -6.647833 0.411405 4.606024 -2.155363 -8.914166 -12.112803 2.547314 -60.851043 -53.149666 63.408318 -10.059013 -8.422818 -25.164062 -6.782514 0.763368 2.680422 18.599254 -9.601568 -1.537929 63.627335 -42.775632 -118.083314 10.489878 -6.276321 -5.829595 -6.352304 -69.027164 1.130927 -144.871874 82.573563 -142.286059 -2.559505 -16.473007 -1.990128 -0.338391 0.504820 -0.253066 -6.798563 -72.231794 26.666371 125.161615 80.480813 121.784823 -16.250811 -23.619415 1.375769 0.008974 -0.852542 -0.170882
-20.946879 50.181145 27.075570 162.310153 -11.798402 0.083386 6.033537 7.210867 0.117584 0.333930 0.401389 -0.052062 0.579048 0.696415 -0.088769 5.531961 6.707522 -0.562643 10.549575 18.147143 -1.731783 19.924329 -1.151081 -6.518168 0.582188 4.704310 -1.951172 -7.867177 -12.206106 2.467112 -60.822688 -49.278438 62.761160 -10.949098 -9.043376 -26.016045 -7.404716 0.745161 2.430733 17.009095 -10.286668 -1.663520 61.931354 -41.912833 -116.869613 11.358663 -7.063686 -4.289728 -6.409551 -68.935065 1.077118 -144.937888 82.606036 -142.318146 -2.565488 -16.407806 -2.000422 -0.331602 0.477912 -0.251604 -6.876357 -72.142203 26.557133 124.676087 80.455291 121.373327 -16.271075 -23.599418 1.347442 0.057213 -0.841505 -0.189893
-20.950242 50.193255 27.091025 162.363757 -11.947304 0.095333 6.153041 7.223043 0.070934 0.341875 0.402873 -0.053735 0.592570 0.698829 -0.091552 5.625660 6.690119 -0.580085 10.339019 18.131525 -1.680780 19.524741 -1.219712 -6.364786 0.802564 4.600663 -1.650061 -6.925984 -12.092972 2.007747 -60.712904 -45.853481 62.511637 -11.739612 -9.652075 -26.457222 -8.080186 0.738339 2.245331 15.487054 -11.074609 -1.368507 60.347755 -41.019076 -115.747162 12.086128 -7.724079 -2.849182 -6.338822 -68.786996 0.917428 -145.058624 82.638572 -142.414018 -2.530986 -16.353878 -2.010797 -0.362714 0.479073 -0.233213 -6.812331 -71.989040 26.387085 124.388017 80.455391 121.118506 -16.369217 -23.572724 1.374058 0.034675 -0.844701 -0.178277
-20.948403 50.205809 27.117975 162.456325 -12.074165 0.065393 6.238268 7.204131 0.065982 0.350918 0.405565 -0.055546 0.608014 0.703298 -0.094680 5.726899 6.681584 -0.597832 10.113452 18.108914 -1.626568 19.097249 -1.303070 -6.201744 1.026003 4.374247 -1.318475 -6.132003 -11.874743 1.288019 -60.262620 -43.083363 62.326058 -12.337192 -10.107670 -26.514976 -8.783739 0.727666 2.125219 13.975374 -11.894825 -0.688078 59.050990 -40.191796 -114.774399 12.613345 -8.190395 -1.579923 -6.384823 -68.654789 0.859544 -145.055619 82.667829 -142.385622 -2.489728 -16.292082 -2.019785 -0.399829 0.447448 -0.242118 -6.916498 -71.850492 26.341813 123.980104 80.510564 120.788949 -16.502299 -23.545652 1.334705 0.099942 -0.819066 -0.126644
-20.946854 50.217601 27.154694 162.525570 -12.180358 0.043625 6.332596 7.163989 0.071343 0.359450 0.408900 -0.057244 0.622626 0.708807 -0.097578 5.818134 6.682214 -0.613358 9.886259 18.079340 -1.580204 18.669675 -1.397176 -6.053091 1.209578 4.168090 -1.050455 -5.499724 -11.705861 0.407528 -59.344116 -41.093257 62.008583 -12.621317 -10.246134 -26.058628 -9.455841 0.687496 2.060248 12.501196 -12.684059 0.264739 58.075856 -39.547798 -113.949511 12.896593 -8.432653 -0.544767 -6.383785 -68.548458 0.805130 -144.920964 82.708549 -142.235343 -2.476712 -16.217344 -2.011952 -0.430940 0.425558 -0.248722 -7.032486 -71.726513 26.329194 123.557491 80.575361 120.428979 -16.613219 -23.518950 1.295751 0.191847 -0.788618 -0.087168
-20.948890 50.227080 27.201749 162.525217 -12.255321 0.058240 6.459817 7.099186 0.072760 0.366000 0.412347 -0.058266 0.633769 0.714557 -0.099260 5.883544 6.692917 -0.619515 9.669548 18.044296 -1.555244 18.268369 -1.495546 -5.946976 1.333798 4.104463 -0.921144 -4.997862 -11.714592 -0.559456 -57.980771 -39.931889 61.540095 -12.503581 -9.946677 -24.927302 -10.032489 0.603314 2.029547 11.149189 -13.431687 1.362579 57.376110 -39.167890 -113.250820 12.929037 -8.458364 0.209800 -6.260053 -68.483575 0.721059 -144.631176 82.772757 -141.964188 -2.469267 -16.119559 -1.962143 -0.473003 0.441006 -0.258976 -7.066827 -71.629435 26.301692 123.142251 80.623528 120.042832 -16.693337 -23.494531 1.277293 0.262820 -0.760137 -0.074795
-20.948075 50.235322 27.250768 162.531880 -12.355552 0.069573 6.527727 7.067692 0.098946 0.369983 0.415597 -0.058078 0.640518 0.719962 -0.098854 5.919415 6.712155 -0.608953 9.470819 18.005655 -1.561002 17.909972 -1.592502 -5.902469 1.410272 4.188038 -0.936025 -4.566173 -11.910555 -1.580954 -56.318335 -39.577894 61.034554 -12.022673 -9.250444 -23.165868 -10.462393 0.473683 2.015001 9.999232 -14.163671 2.517076 56.900707 -39.066049 -112.692838 12.740686 -8.303550 0.661981 -6.129054 -68.395616 0.640198 -144.238347 82.820359 -141.595178 -2.454610 -16.035240 -1.915987 -0.526521 0.447369 -0.270239 -7.141876 -71.501959 26.305933 122.710655 80.669663 119.625460 -16.737005 -23.477727 1.250762 0.353320 -0.717009 -0.083524
-20.943285 50.241443 27.302573 162.531676 -12.471418 0.068705 6.541494 7.062893 0.157098 0.371069 0.418063 -0.056502 0.642305 0.724066 -0.096098 5.924722 6.734765 -0.580399 9.294362 17.964556 -1.600650 17.603375 -1.685183 -5.926653 1.465445 4.324536 -1.044150 -4.153350 -12.199540 -2.659085 -54.551511 -39.937099 60.631174 -11.241462 -8.321105 -21.026977 -10.723622 0.305161 2.006195 9.075582 -14.903572 3.695831 56.651409 -39.203970 -112.323021 12.384195 -8.033563 0.811211 -5.954603 -68.299950 0.578107 -143.557597 82.826755 -140.932156 -2.490156 -15.945234 -1.860071 -0.533354 0.444163 -0.258484 -7.291939 -71.354788 26.393310 122.296046 80.712513 119.210445 -16.739069 -23.461354 1.186053 0.400675 -0.684262 -0.038245
-20.937408 50.243693 27.362419 162.507365 -12.558076 0.061009 6.514599 7.042413 0.234267 0.369386 0.419132 -0.053710 0.639383 0.725918 -0.091264 5.903323 6.753678 -0.536398 9.140877 17.921744 -1.671662 17.349105 -1.772890 -6.015246 1.544613 4.437825 -1.178430 -3.749550 -12.505597 -3.809160 -52.784614 -40.896393 60.392762 -10.211239 -7.312373 -18.730418 -10.830857 0.108240 1.996083 8.330396 -15.653717 4.910369 56.687674 -39.533476 -112.180257 11.940118 -7.715703 0.663503 -5.844634 -68.232947 0.600228 -142.823761 82.841364 -140.239016 -2.466204 -15.870698 -1.840074 -0.605570 0.465435 -0.223548 -7.385623 -71.253090 26.471597 121.889286 80.762633 118.831099 -16.765147 -23.450050 1.122428 0.488875 -0.646702 0.021145
-20.933088 50.244199 27.419036 162.397757 -12.666659 0.089237 6.515932 7.058675 0.298623 0.365502 0.418674 -0.050082 0.632754 0.725273 -0.085046 5.862323 6.764769 -0.482153 9.007405 17.876836 -1.764837 17.138814 -1.858397 -6.150686 1.613461 4.478677 -1.350801 -3.326425 -12.783514 -4.981036 -51.053117 -42.355075 60.312110 -9.009049 -6.338279 -16.345581 -10.825555 -0.106976 1.987205 7.707905 -16.404006 6.181215 57.043158 -40.009126 -112.273071 11.484587 -7.408224 0.253097 -5.637695 -68.149364 0.603116 -142.045241 82.853884 -139.521004 -2.401181 -15.830478 -1.778719 -0.699290 0.527492 -0.241538 -7.345679 -71.129088 26.505527 121.627712 80.784745 118.563140 -16.799251 -23.426204 1.139481 0.507416 -0.651698 0.024077
